<svg width="108" height="108" viewBox="0 0 108 108" fill="none" xmlns="http://www.w3.org/2000/svg">
<g filter="url(#filter0_d_90_66)">
<circle cx="54" cy="54" r="50" fill="#EBA451"/>
</g>
<path d="M35.462 40.9C35.462 40.6613 35.2796 40.4324 34.955 40.2636C34.6304 40.0948 34.1902 40 33.7312 40C33.2722 40 32.832 40.0948 32.5074 40.2636C32.1828 40.4324 32.0004 40.6613 32.0004 40.9C31.9696 43.625 33.5352 46.2902 36.4891 48.5411C39.443 50.7919 43.6451 52.5216 48.5361 53.5C43.6451 54.4784 39.443 56.2081 36.4891 58.4589C33.5352 60.7098 31.9696 63.375 32.0004 66.1C32.0004 66.3387 32.1828 66.5676 32.5074 66.7364C32.832 66.9052 33.2722 67 33.7312 67C34.1902 67 34.6304 66.9052 34.955 66.7364C35.2796 66.5676 35.462 66.3387 35.462 66.1C35.462 59.5768 45.4172 54.4 57.9617 54.4H60.7067L56.7364 56.4628C56.5754 56.5465 56.4478 56.6458 56.3607 56.7551C56.2736 56.8645 56.2288 56.9817 56.2288 57.1C56.2288 57.2183 56.2736 57.3355 56.3607 57.4449C56.4478 57.5542 56.5754 57.6535 56.7364 57.7372C56.8973 57.8209 57.0883 57.8873 57.2986 57.9325C57.5088 57.9778 57.7342 58.0011 57.9617 58.0011C58.1893 58.0011 58.4146 57.9778 58.6249 57.9325C58.8351 57.8873 59.0262 57.8209 59.1871 57.7372L66.1101 54.1372C66.2713 54.0536 66.3992 53.9543 66.4864 53.8449C66.5737 53.7356 66.6186 53.6184 66.6186 53.5C66.6186 53.3816 66.5737 53.2644 66.4864 53.1551C66.3992 53.0457 66.2713 52.9464 66.1101 52.8628L59.1871 49.2628C59.0262 49.1791 58.8351 49.1127 58.6249 49.0675C58.4146 49.0222 58.1893 48.9989 57.9617 48.9989C57.7342 48.9989 57.5088 49.0222 57.2986 49.0675C57.0883 49.1127 56.8973 49.1791 56.7364 49.2628C56.5754 49.3465 56.4478 49.4458 56.3607 49.5551C56.2736 49.6645 56.2288 49.7817 56.2288 49.9C56.2288 50.0183 56.2736 50.1355 56.3607 50.2449C56.4478 50.3542 56.5754 50.4535 56.7364 50.5372L60.7067 52.6H57.9617C55.0015 52.6103 52.0668 52.3147 49.3281 51.7303C46.5894 51.146 44.1011 50.2846 42.0079 49.1961C39.9146 48.1076 38.2581 46.8137 37.1344 45.3895C36.0106 43.9654 35.4422 42.4393 35.462 40.9V40.9ZM47.5772 43.6C47.1182 43.6 46.678 43.6948 46.3534 43.8636C46.0288 44.0324 45.8465 44.2613 45.8465 44.5C45.8465 44.7387 46.0288 44.9676 46.3534 45.1364C46.678 45.3052 47.1182 45.4 47.5772 45.4H70.077C71.8908 45.4 73.5385 46.2568 73.5385 47.2V59.8C73.5385 60.7432 71.8908 61.6 70.077 61.6H47.5772C47.1182 61.6 46.678 61.6948 46.3534 61.8636C46.0288 62.0324 45.8465 62.2613 45.8465 62.5C45.8465 62.7387 46.0288 62.9676 46.3534 63.1364C46.678 63.3052 47.1182 63.4 47.5772 63.4H70.077C73.8016 63.4 77 61.7368 77 59.8V47.2C77 45.2632 73.8016 43.6 70.077 43.6H47.5772Z" fill="white"/>
<defs>
<filter id="filter0_d_90_66" x="0" y="0" width="108" height="108" filterUnits="userSpaceOnUse" color-interpolation-filters="sRGB">
<feFlood flood-opacity="0" result="BackgroundImageFix"/>
<feColorMatrix in="SourceAlpha" type="matrix" values="0 0 0 0 0 0 0 0 0 0 0 0 0 0 0 0 0 0 127 0" result="hardAlpha"/>
<feOffset/>
<feGaussianBlur stdDeviation="2"/>
<feComposite in2="hardAlpha" operator="out"/>
<feColorMatrix type="matrix" values="0 0 0 0 0 0 0 0 0 0 0 0 0 0 0 0 0 0 0.1 0"/>
<feBlend mode="normal" in2="BackgroundImageFix" result="effect1_dropShadow_90_66"/>
<feBlend mode="normal" in="SourceGraphic" in2="effect1_dropShadow_90_66" result="shape"/>
</filter>
</defs>
</svg>
