<svg width="108" height="108" viewBox="0 0 108 108" fill="none" xmlns="http://www.w3.org/2000/svg">
<g filter="url(#filter0_d_90_65)">
<circle cx="54" cy="54" r="50" fill="#5161EB"/>
</g>
<path d="M69.23 55.9999C69.3171 55.3367 69.3639 54.6688 69.37 53.9999C69.3639 53.3311 69.3171 52.6632 69.23 51.9999L73.56 48.6099C73.7555 48.4606 73.8891 48.2444 73.9353 48.0027C73.9814 47.761 73.9368 47.5108 73.81 47.2999L69.71 40.1899C69.5912 39.9767 69.3986 39.8142 69.1683 39.7332C68.9381 39.6521 68.6861 39.6581 68.46 39.7499L63.35 41.8099C62.2867 40.9984 61.1239 40.3263 59.89 39.8099L59.12 34.3799C59.086 34.1397 58.9659 33.9199 58.7819 33.7617C58.5979 33.6035 58.3626 33.5176 58.12 33.5199H49.9C49.6573 33.5176 49.4221 33.6035 49.2381 33.7617C49.0541 33.9199 48.934 34.1397 48.9 34.3799L48.13 39.8099C46.8945 40.3231 45.7313 40.9954 44.67 41.8099L39.54 39.7499C39.3138 39.6581 39.0619 39.6521 38.8316 39.7332C38.6014 39.8142 38.4087 39.9767 38.29 40.1899L34.19 47.2999C34.0632 47.5108 34.0186 47.761 34.0647 48.0027C34.1109 48.2444 34.2445 48.4606 34.44 48.6099L38.76 51.9999C38.6732 52.6632 38.6265 53.3311 38.62 53.9999C38.6261 54.6688 38.6729 55.3367 38.76 55.9999L34.44 59.3899C34.2445 59.5393 34.1109 59.7555 34.0647 59.9972C34.0186 60.2389 34.0632 60.4891 34.19 60.6999L38.29 67.8099C38.4087 68.0232 38.6014 68.1857 38.8316 68.2667C39.0619 68.3478 39.3138 68.3418 39.54 68.2499L44.65 66.1899C45.7133 67.0015 46.8761 67.6736 48.11 68.1899L48.88 73.6199C48.914 73.8602 49.0341 74.08 49.2181 74.2382C49.4021 74.3964 49.6373 74.4823 49.88 74.4799H58.08C58.3226 74.4823 58.5579 74.3964 58.7419 74.2382C58.9259 74.08 59.046 73.8602 59.08 73.6199L59.85 68.1899C61.0855 67.6768 62.2487 67.0044 63.31 66.1899L68.42 68.2499C68.6461 68.3418 68.8981 68.3478 69.1283 68.2667C69.3586 68.1857 69.5512 68.0232 69.67 67.8099L73.77 60.6999C73.8968 60.4891 73.9414 60.2389 73.8953 59.9972C73.8491 59.7555 73.7155 59.5393 73.52 59.3899L69.23 55.9999ZM54 61.1799C52.5795 61.1819 51.1903 60.7625 50.0083 59.9748C48.8262 59.187 47.9044 58.0663 47.3594 56.7545C46.8144 55.4428 46.6708 53.9988 46.9467 52.6053C47.2226 51.2119 47.9057 49.9316 48.9094 48.9265C49.9132 47.9213 51.1925 47.2365 52.5856 46.9586C53.9786 46.6808 55.4228 46.8224 56.7353 47.3655C58.0479 47.9087 59.1699 48.829 59.9592 50.0099C60.7486 51.1909 61.17 52.5795 61.17 53.9999C61.1713 54.9424 60.9868 55.8758 60.6271 56.7469C60.2673 57.6179 59.7394 58.4095 59.0735 59.0764C58.4076 59.7432 57.6167 60.2723 56.7461 60.6332C55.8756 60.9942 54.9424 61.1799 54 61.1799V61.1799Z" stroke="white" stroke-linecap="round" stroke-linejoin="round"/>
<defs>
<filter id="filter0_d_90_65" x="0" y="0" width="108" height="108" filterUnits="userSpaceOnUse" color-interpolation-filters="sRGB">
<feFlood flood-opacity="0" result="BackgroundImageFix"/>
<feColorMatrix in="SourceAlpha" type="matrix" values="0 0 0 0 0 0 0 0 0 0 0 0 0 0 0 0 0 0 127 0" result="hardAlpha"/>
<feOffset/>
<feGaussianBlur stdDeviation="2"/>
<feComposite in2="hardAlpha" operator="out"/>
<feColorMatrix type="matrix" values="0 0 0 0 0 0 0 0 0 0 0 0 0 0 0 0 0 0 0.1 0"/>
<feBlend mode="normal" in2="BackgroundImageFix" result="effect1_dropShadow_90_65"/>
<feBlend mode="normal" in="SourceGraphic" in2="effect1_dropShadow_90_65" result="shape"/>
</filter>
</defs>
</svg>
